<svg width="24" height="24" viewBox="0 0 24 24" fill="none" xmlns="http://www.w3.org/2000/svg">
<path fill-rule="evenodd" clip-rule="evenodd" d="M19.4 11.5999C19.4 15.6868 16.0869 18.9999 12 18.9999V18.9997H11.9455C7.88368 18.9704 4.6 15.6686 4.6 11.5999C4.6 7.51295 7.91309 4.19985 12 4.19985C16.0869 4.19985 19.4 7.51295 19.4 11.5999ZM12 20.5999L11.9399 20.5997H3V18.9997H6.87579C4.53366 17.3747 3 14.6664 3 11.5999C3 6.62929 7.02944 2.59985 12 2.59985C16.9706 2.59985 21 6.62929 21 11.5999C21 16.5704 16.9706 20.5999 12 20.5999ZM16.4 11.5C16.4 13.9301 14.4301 15.9 12 15.9C9.56995 15.9 7.6 13.9301 7.6 11.5C7.6 9.06999 9.56995 7.10005 12 7.10005C14.4301 7.10005 16.4 9.06999 16.4 11.5ZM18 11.5C18 14.8138 15.3137 17.5 12 17.5C8.68629 17.5 6 14.8138 6 11.5C6 8.18634 8.68629 5.50005 12 5.50005C15.3137 5.50005 18 8.18634 18 11.5Z" fill="black"/>
</svg>
