<?xml version="1.0" standalone="no"?>
<!DOCTYPE svg PUBLIC "-//W3C//DTD SVG 20010904//EN"
 "http://www.w3.org/TR/2001/REC-SVG-20010904/DTD/svg10.dtd">
<svg version="1.0" xmlns="http://www.w3.org/2000/svg"
 width="16.000000pt" height="16.000000pt" viewBox="0 0 16.000000 16.000000"
 preserveAspectRatio="xMidYMid meet">

<g transform="translate(0.000000,16.000000) scale(0.100000,-0.100000)"
fill="#000000" stroke="none">
<path d="M43 136 c-16 -16 -23 -35 -22 -57 l2 -34 4 30 c5 31 23 60 23 36 0
-11 3 -11 15 -1 12 10 18 10 30 0 12 -10 15 -10 15 1 0 30 18 -9 24 -54 l7
-47 -60 0 c-48 0 -60 3 -64 18 -4 13 -5 11 -6 -5 -1 -22 3 -23 70 -23 l70 0
-7 57 c-7 60 -34 103 -64 103 -8 0 -25 -11 -37 -24z m52 4 c3 -5 -3 -10 -15
-10 -12 0 -18 5 -15 10 3 6 10 10 15 10 5 0 12 -4 15 -10z"/>
</g>
</svg>
